<svg id="Layer_1" data-name="Layer 1" xmlns="http://www.w3.org/2000/svg" viewBox="0 0 301.21 301.21"><defs><style>.cls-1,.cls-3{fill:#fff;}.cls-1,.cls-9{stroke:#636e72;stroke-miterlimit:10;}.cls-1{stroke-width:18px;}.cls-2{fill:#fa0000;}.cls-4{fill:#f0f;}.cls-5{fill:lime;}.cls-6{fill:aqua;}.cls-7{fill:#ff0;}.cls-8{fill:blue;}.cls-9{fill:#1d1d1b;stroke-width:9px;}</style></defs><title>colourwheel</title><circle class="cls-1" cx="150.61" cy="150.61" r="141.57"/><path class="cls-2" d="M355.69,294.81,409.87,425.6A141.12,141.12,0,0,0,486.48,349Z" transform="translate(-204.7 -143.28)"/><path class="cls-3" d="M355.69,294.81,409.87,164a141.12,141.12,0,0,0-108.36,0Z" transform="translate(-204.7 -143.28)"/><path class="cls-4" d="M355.69,294.81,224.9,349a141.12,141.12,0,0,0,76.61,76.61Z" transform="translate(-204.7 -143.28)"/><path class="cls-5" d="M355.69,294.81,486.48,349a141.08,141.08,0,0,0,0-108.36Z" transform="translate(-204.7 -143.28)"/><path class="cls-6" d="M355.69,294.81,301.51,164a141.12,141.12,0,0,0-76.61,76.61Z" transform="translate(-204.7 -143.28)"/><path d="M355.69,294.81,301.51,425.6a141.12,141.12,0,0,0,108.36,0Z" transform="translate(-204.7 -143.28)"/><path class="cls-7" d="M355.69,294.81l130.79-54.18A141.09,141.09,0,0,0,409.87,164Z" transform="translate(-204.7 -143.28)"/><path class="cls-8" d="M355.69,294.81,224.9,240.63a141.12,141.12,0,0,0,0,108.36Z" transform="translate(-204.7 -143.28)"/><circle class="cls-9" cx="150.61" cy="150.61" r="47.97"/><circle class="cls-9" cx="150.99" cy="151.53" r="47.97"/></svg>